# Blender v2.82 (sub 7) OBJ File: ''
# www.blender.org
mtllib gjs_simplified.mtl
o node
v 3.992531 -0.579984 0.949136
v 4.099336 -0.600239 -0.002534
v 4.043881 0.589885 0.957590
v 4.026802 0.582880 -0.001343
v 2.942231 -0.610616 0.000837
v 2.788106 -0.630980 1.069143
v 4.555393 -0.589872 1.106257
v 2.954709 0.600141 1.014144
v 2.758526 0.590695 1.106975
v 4.554262 0.591911 1.102948
v 4.564308 0.599837 -0.038944
v 2.777490 0.622607 -0.037877
v 2.711393 -0.594378 -0.135117
v 4.749166 -0.732345 -0.277386
v 5.056473 -0.990940 -0.066846
v 2.688657 -0.910285 -0.306917
v 2.770738 -1.001214 -0.007423
v 4.894311 0.783459 -0.244354
v 0.669378 -1.045849 -0.006552
v -0.030557 -1.005367 -0.583756
v 4.316410 -0.758101 -0.838360
v -0.025271 1.014527 -0.552052
v 0.011247 -0.048436 -1.124881
v 0.666250 1.029065 -0.008425
v 2.770517 1.006155 -0.007320
v 2.715466 0.873308 -0.304310
v 6.417568 0.943753 -0.039033
v 7.153732 0.091236 -0.049586
v 6.515875 -0.833873 -0.057521
v 5.380115 -0.020851 -1.082366
v 4.268570 0.771804 -0.881926
v 4.780077 0.920540 -0.277684
v 6.153513 0.491078 -0.474651
v 6.461436 -0.540676 -0.352228
vt 2.172599 -11.172714
vt -0.137597 -4.126020
vt 12.346498 -11.220960
vt 13.087572 -5.522935
vt 12.960049 -22.735514
vt 1.764062 -23.198551
vt 2.125604 -21.694820
vt -5.756837 12.346499
vt -5.657840 2.172740
vt 5.929275 12.346498
vt 5.862214 2.172743
vt 12.346499 -21.501114
vt 1.642276 -22.727814
vt 13.174287 -23.005564
vt 12.346500 -11.218165
vt 13.075186 -5.503316
vt 1.787269 -5.413439
vt 2.172599 -11.191320
vt 5.827491 1.852759
vt 5.883963 13.056658
vt -5.661659 13.109350
vt -5.496510 1.897647
vt -5.658215 -23.135178
vt -5.667532 -5.493069
vt 5.750468 -23.140202
vt 5.918753 -5.462002
vt 5.250958 2.172599
vt -5.053782 2.172599
vt 5.250958 10.815410
vt -5.053782 10.815410
vt 5.614283 -10.441565
vt 6.049898 -21.426514
vt -5.848109 -21.383781
vt -5.444768 -9.778784
vt 5.993785 -21.381832
vt 6.014897 -11.315649
vt -5.833622 -21.414555
vt -5.797955 -11.332445
vt -0.779051 -2.466403
vt -0.895383 -21.608194
vt 1.627632 -0.609024
vt 1.542255 -22.397213
vt 2.172539 -23.477379
vt 2.172599 -44.067394
vt -6.517226 -7.837029
vt -3.590495 -50.817398
vt 9.948734 -3.274120
vt 0.098588 -8.727400
vt -9.692464 -3.590495
vt -3.274120 -50.817394
vt -1.045190 -24.900045
vt 2.172599 -44.067394
vt 1.476188 -22.201752
vt -0.838986 -24.103922
vt -7.000474 -2.888238
vt 8.067746 -1.928846
vt 5.918705 -5.258373
vt -0.763557 -3.711968
vt -0.813996 -24.179775
vt 5.967659 -24.431881
vt 8.540201 -24.770832
vt -7.247551 -25.121071
vt -6.234491 -23.822357
vt -9.861435 -50.817394
vt 10.099800 -50.817394
vt 5.867255 13.028818
vt 5.885373 0.763864
vt -5.701797 13.059547
vt -5.647678 1.348496
vt -7.573882 13.327950
vt 8.136642 12.800961
vt 0.162487 20.327869
vt -9.002489 0.698141
vt 10.505825 -23.499979
vt -0.015438 -1.814961
vt 1.249162 -0.156267
vt 0.115946 3.302404
vt -6.682225 -7.751923
vt 0.092897 -50.703949
vt 7.102592 -8.166796
vt -6.675706 -8.068541
vt 2.172520 -23.477373
vt -0.763253 -2.737229
vt 1.624279 0.492137
vt -9.401412 -50.817394
vt 9.598588 -50.817394
vt 0.792979 4.007904
vt -3.283322 3.487044
vt 5.512252 9.718998
vt -1.539466 18.268417
vt -4.596455 13.779797
vt -1.213276 2.950961
vt -1.976368 11.504598
vt -5.127612 2.115273
vt -3.509157 -0.505703
vt 0.501903 1.747572
vt 0.336852 10.956385
vn -0.3486 -0.8055 0.4792
vn 0.1921 0.0883 0.9774
vn -0.3512 -0.8410 -0.4116
vn 0.5514 -0.5508 0.6265
vn -0.3452 -0.7592 0.5518
vn -0.9219 -0.2620 0.2854
vn 0.2228 -0.7076 0.6706
vn 0.3059 0.9142 -0.2657
vn -0.5651 0.4266 0.7061
vn -0.5965 0.5470 0.5873
vn -0.3269 0.8927 -0.3100
vn 0.5741 0.5784 0.5795
vn 0.7268 0.6848 0.0528
vn -0.2934 0.6930 0.6585
vn -0.2211 0.4784 0.8499
vn 0.1404 -0.6375 0.7576
vn -0.1745 -0.2670 0.9477
vn 0.4890 0.1145 -0.8648
vn 0.0536 -0.7224 -0.6894
vn -0.6052 -0.7765 0.1752
vn -0.6205 0.7638 0.1775
vn -0.5957 -0.0129 -0.8031
vn -0.2288 -0.4266 0.8750
vn -0.5330 0.1091 0.8391
vn -0.0982 0.3353 0.9370
vn 0.0642 -0.3421 0.9375
vn 0.2805 0.4457 0.8501
vn 0.3724 -0.8602 0.3483
vn 0.3828 0.8642 0.3265
vn 0.9718 0.0918 0.2170
vn 0.2656 -0.0227 -0.9638
vn 0.0649 0.7101 -0.7011
vn 0.0850 0.9455 -0.3144
vn 0.3475 0.5016 -0.7923
vn 0.4364 -0.4840 -0.7585
usemtl Procedural_Ceramic
s 1
f 2/1/1 14/2/2 1/3/3
f 1/3/3 14/2/2 7/4/4
f 1/3/3 7/4/4 6/5/5
f 6/5/5 13/6/6 5/7/7
f 6/8/5 5/9/7 8/10/8
f 8/10/8 5/9/7 12/11/9
f 8/12/8 12/13/9 9/14/10
f 8/12/8 9/14/10 3/15/11
f 3/15/11 9/14/10 10/16/12
f 3/15/11 10/16/12 11/17/13
f 11/17/13 4/18/14 3/15/11
f 11/19/13 10/20/12 7/21/4
f 11/19/13 7/21/4 14/22/2
f 6/23/5 7/24/4 9/25/10
f 9/25/10 7/24/4 10/26/12
f 4/27/14 2/28/1 3/29/11
f 3/29/11 2/28/1 1/30/3
f 4/31/14 12/32/9 5/33/7
f 4/31/14 5/33/7 2/34/1
f 8/35/8 3/36/11 6/37/5
f 6/37/5 3/36/11 1/38/3
f 14/39/2 16/40/15 15/41/16
f 15/41/16 16/40/15 17/42/17
f 17/43/17 19/44/18 21/45/19
f 21/45/19 19/44/18 20/46/20
f 22/47/21 23/48/22 20/49/20
f 22/50/21 26/51/23 24/52/24
f 26/51/23 25/53/25 24/52/24
f 16/54/15 14/2/2 5/7/7
f 5/7/7 14/2/2 2/1/1
f 14/55/2 18/56/26 11/57/27
f 18/58/26 26/59/23 12/13/9
f 18/58/26 12/13/9 4/18/14
f 4/18/14 11/17/27 18/58/26
f 13/6/6 16/54/15 5/7/7
f 12/60/9 26/61/23 16/62/15
f 16/62/15 13/63/6 12/60/9
f 19/44/18 17/42/17 20/46/20
f 20/46/20 17/42/17 16/40/15
f 20/64/20 16/62/15 22/65/21
f 22/65/21 16/62/15 26/61/23
f 9/66/10 12/67/9 6/68/5
f 6/68/5 12/67/9 13/69/6
f 14/55/2 29/70/28 18/56/26
f 18/56/26 29/70/28 27/71/29
f 27/71/29 29/70/28 28/72/30
f 15/73/16 29/70/28 14/55/2
f 18/56/26 27/71/29 25/74/25
f 26/51/23 18/75/26 25/53/25
f 15/76/16 17/43/17 21/45/19
f 30/77/31 21/78/19 23/79/22
f 30/77/31 23/79/22 31/80/32
f 31/81/32 25/82/25 32/83/33
f 32/83/33 25/82/25 27/84/29
f 20/85/20 23/79/22 21/78/19
f 31/81/32 22/50/21 24/52/24
f 31/81/32 24/52/24 25/82/25
f 31/80/32 23/79/22 22/86/21
f 33/87/34 32/83/33 27/84/29
f 33/88/34 31/81/32 32/83/33
f 33/89/34 27/71/29 28/90/30
f 33/89/34 28/90/30 30/77/31
f 30/77/31 31/80/32 33/89/34
f 21/78/19 30/77/31 34/91/35
f 34/91/35 30/77/31 28/90/30
f 15/92/16 21/45/19 34/93/35
f 29/94/28 34/95/35 28/96/30
f 34/93/35 29/97/28 15/92/16
o Temp_Plane
v 0.100000 -0.100000 -0.000000
v 0.100000 0.100000 0.000000
v -0.100000 0.100000 0.000000
v -0.100000 -0.100000 -0.000000
vt 0.000000 0.000000
vt 1.000000 0.000000
vt 1.000000 1.000000
vt 0.000000 1.000000
vn 0.0000 -0.0000 1.0000
usemtl Procedural_Ceramic
s 1
f 35/98/36 36/99/36 37/100/36 38/101/36
